<svg width="16" height="10" viewBox="0 0 16 10" fill="none" xmlns="http://www.w3.org/2000/svg">
<path d="M7.40234 9.64453L0.582031 2.82422C0.417969 2.66016 0.335938 2.46094 0.335938 2.22656C0.335938 1.99219 0.417969 1.79297 0.582031 1.62891L1.35547 0.855469C1.51953 0.691406 1.71875 0.609375 1.95312 0.609375C2.1875 0.585938 2.38672 0.65625 2.55078 0.820312L8 6.26953L13.4492 0.820312C13.6133 0.65625 13.8125 0.585938 14.0469 0.609375C14.2812 0.609375 14.4805 0.691406 14.6445 0.855469L15.418 1.62891C15.582 1.79297 15.6641 1.99219 15.6641 2.22656C15.6641 2.46094 15.582 2.66016 15.418 2.82422L8.59766 9.64453C8.43359 9.83203 8.23438 9.92578 8 9.92578C7.76562 9.92578 7.56641 9.83203 7.40234 9.64453Z" fill="#11144C"/>
</svg>
