<svg width="186" height="237" viewBox="0 0 186 237" fill="none" xmlns="http://www.w3.org/2000/svg">
<circle cx="3" cy="3" r="3" fill="#11144C" fill-opacity="0.1"/>
<circle cx="39" cy="3" r="3" fill="#11144C" fill-opacity="0.1"/>
<circle cx="75" cy="3" r="3" fill="#11144C" fill-opacity="0.1"/>
<circle cx="111" cy="3" r="3" fill="#11144C" fill-opacity="0.1"/>
<circle cx="147" cy="3" r="3" fill="#11144C" fill-opacity="0.1"/>
<circle cx="183" cy="3" r="3" fill="#11144C" fill-opacity="0.1"/>
<circle cx="3" cy="24" r="3" fill="#11144C" fill-opacity="0.1"/>
<circle cx="39" cy="24" r="3" fill="#11144C" fill-opacity="0.1"/>
<circle cx="75" cy="24" r="3" fill="#11144C" fill-opacity="0.1"/>
<circle cx="111" cy="24" r="3" fill="#11144C" fill-opacity="0.1"/>
<circle cx="147" cy="24" r="3" fill="#11144C" fill-opacity="0.1"/>
<circle cx="183" cy="24" r="3" fill="#11144C" fill-opacity="0.1"/>
<circle cx="3" cy="45" r="3" fill="#11144C" fill-opacity="0.1"/>
<circle cx="39" cy="45" r="3" fill="#11144C" fill-opacity="0.1"/>
<circle cx="75" cy="45" r="3" fill="#11144C" fill-opacity="0.1"/>
<circle cx="111" cy="45" r="3" fill="#11144C" fill-opacity="0.1"/>
<circle cx="147" cy="45" r="3" fill="#11144C" fill-opacity="0.1"/>
<circle cx="183" cy="45" r="3" fill="#11144C" fill-opacity="0.1"/>
<circle cx="3" cy="66" r="3" fill="#11144C" fill-opacity="0.1"/>
<circle cx="39" cy="66" r="3" fill="#11144C" fill-opacity="0.1"/>
<circle cx="75" cy="66" r="3" fill="#11144C" fill-opacity="0.1"/>
<circle cx="111" cy="66" r="3" fill="#11144C" fill-opacity="0.1"/>
<circle cx="147" cy="66" r="3" fill="#11144C" fill-opacity="0.1"/>
<circle cx="183" cy="66" r="3" fill="#11144C" fill-opacity="0.1"/>
<circle cx="3" cy="87" r="3" fill="#11144C" fill-opacity="0.1"/>
<circle cx="39" cy="87" r="3" fill="#11144C" fill-opacity="0.1"/>
<circle cx="75" cy="87" r="3" fill="#11144C" fill-opacity="0.1"/>
<circle cx="111" cy="87" r="3" fill="#11144C" fill-opacity="0.1"/>
<circle cx="147" cy="87" r="3" fill="#11144C" fill-opacity="0.1"/>
<circle cx="183" cy="87" r="3" fill="#11144C" fill-opacity="0.1"/>
<circle cx="3" cy="108" r="3" fill="#11144C" fill-opacity="0.1"/>
<circle cx="39" cy="108" r="3" fill="#11144C" fill-opacity="0.1"/>
<circle cx="75" cy="108" r="3" fill="#11144C" fill-opacity="0.1"/>
<circle cx="111" cy="108" r="3" fill="#11144C" fill-opacity="0.1"/>
<circle cx="147" cy="108" r="3" fill="#11144C" fill-opacity="0.1"/>
<circle cx="183" cy="108" r="3" fill="#11144C" fill-opacity="0.1"/>
<circle cx="3" cy="129" r="3" fill="#11144C" fill-opacity="0.1"/>
<circle cx="39" cy="129" r="3" fill="#11144C" fill-opacity="0.1"/>
<circle cx="75" cy="129" r="3" fill="#11144C" fill-opacity="0.1"/>
<circle cx="111" cy="129" r="3" fill="#11144C" fill-opacity="0.1"/>
<circle cx="147" cy="129" r="3" fill="#11144C" fill-opacity="0.1"/>
<circle cx="183" cy="129" r="3" fill="#11144C" fill-opacity="0.1"/>
<circle cx="3" cy="150" r="3" fill="#11144C" fill-opacity="0.1"/>
<circle cx="39" cy="150" r="3" fill="#11144C" fill-opacity="0.1"/>
<circle cx="75" cy="150" r="3" fill="#11144C" fill-opacity="0.1"/>
<circle cx="111" cy="150" r="3" fill="#11144C" fill-opacity="0.1"/>
<circle cx="147" cy="150" r="3" fill="#11144C" fill-opacity="0.1"/>
<circle cx="183" cy="150" r="3" fill="#11144C" fill-opacity="0.1"/>
<circle cx="3" cy="171" r="3" fill="#11144C" fill-opacity="0.1"/>
<circle cx="39" cy="171" r="3" fill="#11144C" fill-opacity="0.1"/>
<circle cx="75" cy="171" r="3" fill="#11144C" fill-opacity="0.1"/>
<circle cx="111" cy="171" r="3" fill="#11144C" fill-opacity="0.1"/>
<circle cx="147" cy="171" r="3" fill="#11144C" fill-opacity="0.1"/>
<circle cx="183" cy="171" r="3" fill="#11144C" fill-opacity="0.1"/>
<circle cx="3" cy="192" r="3" fill="#11144C" fill-opacity="0.1"/>
<circle cx="39" cy="192" r="3" fill="#11144C" fill-opacity="0.1"/>
<circle cx="75" cy="192" r="3" fill="#11144C" fill-opacity="0.1"/>
<circle cx="111" cy="192" r="3" fill="#11144C" fill-opacity="0.1"/>
<circle cx="147" cy="192" r="3" fill="#11144C" fill-opacity="0.1"/>
<circle cx="183" cy="192" r="3" fill="#11144C" fill-opacity="0.1"/>
<circle cx="3" cy="213" r="3" fill="#11144C" fill-opacity="0.1"/>
<circle cx="39" cy="213" r="3" fill="#11144C" fill-opacity="0.1"/>
<circle cx="75" cy="213" r="3" fill="#11144C" fill-opacity="0.1"/>
<circle cx="111" cy="213" r="3" fill="#11144C" fill-opacity="0.1"/>
<circle cx="147" cy="213" r="3" fill="#11144C" fill-opacity="0.1"/>
<circle cx="183" cy="213" r="3" fill="#11144C" fill-opacity="0.1"/>
<circle cx="3" cy="234" r="3" fill="#11144C" fill-opacity="0.1"/>
<circle cx="39" cy="234" r="3" fill="#11144C" fill-opacity="0.1"/>
<circle cx="75" cy="234" r="3" fill="#11144C" fill-opacity="0.1"/>
<circle cx="111" cy="234" r="3" fill="#11144C" fill-opacity="0.1"/>
<circle cx="147" cy="234" r="3" fill="#11144C" fill-opacity="0.1"/>
<circle cx="183" cy="234" r="3" fill="#11144C" fill-opacity="0.1"/>
</svg>
