<svg width="36" height="28" viewBox="0 0 36 28" fill="none" xmlns="http://www.w3.org/2000/svg">
<path d="M30.5 17.5625V26.5C30.5 26.9167 30.3542 27.2708 30.0625 27.5625C29.7708 27.8542 29.4167 28 29 28H21.75C21.5417 28 21.3542 27.9167 21.1875 27.75C21.0625 27.625 21 27.4583 21 27.25V20.25C21 20.0417 20.9167 19.875 20.75 19.75C20.625 19.5833 20.4583 19.5 20.25 19.5H15.75C15.5417 19.5 15.3542 19.5833 15.1875 19.75C15.0625 19.875 15 20.0417 15 20.25V27.25C15 27.4583 14.9167 27.625 14.75 27.75C14.625 27.9167 14.4583 28 14.25 28H7C6.58333 28 6.22917 27.8542 5.9375 27.5625C5.64583 27.2708 5.5 26.9167 5.5 26.5V17.5625C5.5 17.3125 5.58333 17.1042 5.75 16.9375L17.5 7.3125C17.6667 7.1875 17.8333 7.125 18 7.125C18.1667 7.125 18.3333 7.1875 18.5 7.3125L30.25 16.9375C30.4167 17.1042 30.5 17.3125 30.5 17.5625ZM35.75 13.75L30.5 9.4375V0.75C30.5 0.541667 30.4167 0.375 30.25 0.25C30.125 0.0833333 29.9583 0 29.75 0H26.25C26.0417 0 25.8542 0.0833333 25.6875 0.25C25.5625 0.375 25.5 0.541667 25.5 0.75V5.3125L19.9375 0.6875C19.3542 0.229167 18.7083 0 18 0C17.2917 0 16.6667 0.229167 16.125 0.6875L0.25 13.75C0.125 13.875 0.0416667 14.0417 0 14.25C0 14.4583 0.0625 14.6458 0.1875 14.8125L1.75 16.75C1.875 16.9167 2.04167 17 2.25 17C2.45833 17 2.64583 16.9375 2.8125 16.8125L17.5 4.75C17.6667 4.625 17.8333 4.5625 18 4.5625C18.1667 4.5625 18.3333 4.625 18.5 4.75L33.1875 16.8125C33.3542 16.9375 33.5417 17 33.75 17C33.9583 17 34.125 16.9167 34.25 16.75L35.8125 14.8125C35.9375 14.6458 35.9792 14.4583 35.9375 14.25C35.9375 14.0417 35.875 13.875 35.75 13.75Z" fill="#11144C"/>
</svg>
