<svg width="20" height="20" viewBox="0 0 20 20" fill="none" xmlns="http://www.w3.org/2000/svg">
<path d="M10 4.80859C9.11198 4.80859 8.28125 5.03776 7.50781 5.49609C6.76302 5.92578 6.16146 6.52734 5.70312 7.30078C5.27344 8.04557 5.05859 8.86198 5.05859 9.75C5.05859 10.638 5.27344 11.4688 5.70312 12.2422C6.16146 12.987 6.76302 13.5885 7.50781 14.0469C8.28125 14.4766 9.11198 14.6914 10 14.6914C10.888 14.6914 11.7044 14.4766 12.4492 14.0469C13.2227 13.5885 13.8242 12.987 14.2539 12.2422C14.7122 11.4688 14.9414 10.638 14.9414 9.75C14.9414 8.86198 14.7122 8.04557 14.2539 7.30078C13.8242 6.52734 13.2227 5.92578 12.4492 5.49609C11.7044 5.03776 10.888 4.80859 10 4.80859ZM10 12.9727C9.11198 12.9727 8.35286 12.6576 7.72266 12.0273C7.09245 11.3971 6.77734 10.638 6.77734 9.75C6.77734 8.86198 7.09245 8.10286 7.72266 7.47266C8.35286 6.84245 9.11198 6.52734 10 6.52734C10.888 6.52734 11.6471 6.84245 12.2773 7.47266C12.9076 8.10286 13.2227 8.86198 13.2227 9.75C13.2227 10.638 12.9076 11.3971 12.2773 12.0273C11.6471 12.6576 10.888 12.9727 10 12.9727ZM16.3164 4.59375C16.2878 4.90885 16.1589 5.18099 15.9297 5.41016C15.7292 5.63932 15.4714 5.75391 15.1562 5.75391C14.8411 5.75391 14.569 5.63932 14.3398 5.41016C14.1107 5.18099 13.9961 4.90885 13.9961 4.59375C13.9961 4.27865 14.1107 4.00651 14.3398 3.77734C14.569 3.54818 14.8411 3.43359 15.1562 3.43359C15.4714 3.43359 15.7435 3.54818 15.9727 3.77734C16.2018 4.00651 16.3164 4.27865 16.3164 4.59375ZM19.582 5.75391C19.5247 4.92318 19.3958 4.20703 19.1953 3.60547C18.9375 2.88932 18.5365 2.27344 17.9922 1.75781C17.4766 1.21354 16.8607 0.8125 16.1445 0.554688C15.543 0.354167 14.8268 0.239583 13.9961 0.210938C13.194 0.153646 11.862 0.125 10 0.125C8.13802 0.125 6.79167 0.153646 5.96094 0.210938C5.15885 0.239583 4.45703 0.354167 3.85547 0.554688C3.13932 0.8125 2.50911 1.21354 1.96484 1.75781C1.44922 2.27344 1.0625 2.88932 0.804688 3.60547C0.604167 4.20703 0.47526 4.92318 0.417969 5.75391C0.389323 6.55599 0.375 7.88802 0.375 9.75C0.375 11.612 0.389323 12.9583 0.417969 13.7891C0.47526 14.5911 0.604167 15.293 0.804688 15.8945C1.0625 16.6107 1.44922 17.2409 1.96484 17.7852C2.50911 18.3008 3.13932 18.6732 3.85547 18.9023C4.45703 19.1315 5.15885 19.2604 5.96094 19.2891C6.79167 19.3464 8.13802 19.375 10 19.375C11.862 19.375 13.194 19.3464 13.9961 19.2891C14.8268 19.2604 15.543 19.1458 16.1445 18.9453C16.8607 18.6875 17.4766 18.3008 17.9922 17.7852C18.5365 17.2409 18.9375 16.6107 19.1953 15.8945C19.3958 15.293 19.5104 14.5911 19.5391 13.7891C19.5964 12.9583 19.625 11.612 19.625 9.75C19.625 7.88802 19.6107 6.55599 19.582 5.75391ZM17.5195 15.4219C17.1758 16.2812 16.5599 16.8971 15.6719 17.2695C15.2135 17.4414 14.4401 17.556 13.3516 17.6133C12.75 17.6419 11.862 17.6562 10.6875 17.6562H9.3125C8.16667 17.6562 7.27865 17.6419 6.64844 17.6133C5.58854 17.556 4.8151 17.4414 4.32812 17.2695C3.46875 16.9258 2.85286 16.3099 2.48047 15.4219C2.30859 14.9349 2.19401 14.1615 2.13672 13.1016C2.10807 12.4714 2.09375 11.5833 2.09375 10.4375V9.0625C2.09375 7.91667 2.10807 7.02865 2.13672 6.39844C2.19401 5.3099 2.30859 4.53646 2.48047 4.07812C2.82422 3.1901 3.4401 2.57422 4.32812 2.23047C4.8151 2.05859 5.58854 1.94401 6.64844 1.88672C7.27865 1.85807 8.16667 1.84375 9.3125 1.84375H10.6875C11.8333 1.84375 12.7214 1.85807 13.3516 1.88672C14.4401 1.94401 15.2135 2.05859 15.6719 2.23047C16.5599 2.57422 17.1758 3.1901 17.5195 4.07812C17.6914 4.53646 17.806 5.3099 17.8633 6.39844C17.8919 7 17.9062 7.88802 17.9062 9.0625V10.4375C17.9062 11.5833 17.8919 12.4714 17.8633 13.1016C17.806 14.1615 17.6914 14.9349 17.5195 15.4219Z" fill="white"/>
</svg>
