<svg width="52" height="25" viewBox="0 0 52 25" fill="none" xmlns="http://www.w3.org/2000/svg">
<path d="M4.382 14.866C4.382 15.49 4.46867 15.9233 4.642 16.166C4.83267 16.4087 5.17067 16.53 5.656 16.53C5.95067 16.53 6.202 16.5127 6.41 16.478C6.63533 16.426 6.89533 16.348 7.19 16.244L6.878 18.714C6.60067 18.8873 6.23667 19.0173 5.786 19.104C5.33533 19.208 4.89333 19.26 4.46 19.26C3.19467 19.26 2.26733 18.9567 1.678 18.35C1.106 17.726 0.82 16.738 0.82 15.386V0.305999H4.382V14.866ZM15.1547 5.74C17.2521 5.74 18.8814 6.338 20.0427 7.534C21.2214 8.73 21.8107 10.3853 21.8107 12.5C21.8107 14.6147 21.2214 16.27 20.0427 17.466C18.8814 18.662 17.2521 19.26 15.1547 19.26C13.0574 19.26 11.4194 18.662 10.2407 17.466C9.0794 16.27 8.49873 14.6147 8.49873 12.5C8.49873 10.3853 9.0794 8.73 10.2407 7.534C11.4194 6.338 13.0574 5.74 15.1547 5.74ZM15.1547 8.392C14.1494 8.392 13.3781 8.73867 12.8407 9.432C12.3207 10.108 12.0607 11.1307 12.0607 12.5C12.0607 13.8693 12.3207 14.9007 12.8407 15.594C13.3781 16.27 14.1494 16.608 15.1547 16.608C16.1601 16.608 16.9227 16.27 17.4427 15.594C17.9801 14.9007 18.2487 13.8693 18.2487 12.5C18.2487 11.1307 17.9801 10.108 17.4427 9.432C16.9227 8.73867 16.1601 8.392 15.1547 8.392ZM32.6686 16.556C34.0899 16.556 35.1819 16.868 35.9446 17.492C36.7246 18.116 37.1146 19.0087 37.1146 20.17C37.1146 21.5567 36.4732 22.64 35.1906 23.42C33.9079 24.2 32.2179 24.59 30.1206 24.59C27.9539 24.59 26.3419 24.304 25.2846 23.732C24.2446 23.16 23.7246 22.38 23.7246 21.392C23.7246 20.8027 23.9239 20.2913 24.3226 19.858C24.7212 19.4247 25.3106 19.1127 26.0906 18.922C25.5012 18.6793 25.0332 18.3413 24.6866 17.908C24.3399 17.4573 24.1666 16.9287 24.1666 16.322C24.1666 15.698 24.3486 15.1607 24.7126 14.71C25.0766 14.2593 25.5792 13.9213 26.2206 13.696C25.5619 13.3147 25.0592 12.8293 24.7126 12.24C24.3659 11.6333 24.1926 10.94 24.1926 10.16C24.1926 8.79067 24.7212 7.716 25.7786 6.936C26.8532 6.13867 28.3092 5.74 30.1466 5.74C31.0826 5.74 31.9579 5.85267 32.7726 6.078C32.9979 5.05533 33.4312 4.258 34.0726 3.686C34.7312 3.09667 35.6152 2.83667 36.7246 2.906L37.1926 5.454C37.0712 5.43667 36.8892 5.428 36.6466 5.428C36.0052 5.428 35.4679 5.54067 35.0346 5.766C34.6186 5.99133 34.3239 6.29467 34.1506 6.676C34.7919 7.05733 35.2772 7.54267 35.6066 8.132C35.9532 8.72133 36.1266 9.39733 36.1266 10.16C36.1266 11.512 35.5892 12.5867 34.5146 13.384C33.4572 14.164 32.0012 14.554 30.1466 14.554C29.2972 14.554 28.5172 14.476 27.8066 14.32C27.1306 14.4933 26.7926 14.8833 26.7926 15.49C26.7926 15.8367 26.9226 16.1053 27.1826 16.296C27.4426 16.4693 27.8066 16.556 28.2746 16.556H32.6686ZM30.1466 7.976C29.4532 7.976 28.8812 8.17533 28.4306 8.574C27.9972 8.97267 27.7806 9.49267 27.7806 10.134C27.7806 10.7927 27.9972 11.3213 28.4306 11.72C28.8812 12.1187 29.4532 12.318 30.1466 12.318C30.8572 12.318 31.4292 12.1187 31.8626 11.72C32.3132 11.3213 32.5386 10.7927 32.5386 10.134C32.5386 9.49267 32.3132 8.97267 31.8626 8.574C31.4292 8.17533 30.8572 7.976 30.1466 7.976ZM30.4066 22.146C31.6199 22.146 32.5559 21.99 33.2146 21.678C33.8732 21.3833 34.2026 21.002 34.2026 20.534C34.2026 20.17 34.0466 19.8927 33.7346 19.702C33.4399 19.5287 32.9459 19.442 32.2526 19.442H28.7166C27.2779 19.442 26.5586 19.832 26.5586 20.612C26.5586 21.0973 26.8792 21.47 27.5206 21.73C28.1619 22.0073 29.1239 22.146 30.4066 22.146ZM45.2934 5.74C47.3907 5.74 49.0201 6.338 50.1814 7.534C51.3601 8.73 51.9494 10.3853 51.9494 12.5C51.9494 14.6147 51.3601 16.27 50.1814 17.466C49.0201 18.662 47.3907 19.26 45.2934 19.26C43.1961 19.26 41.5581 18.662 40.3794 17.466C39.2181 16.27 38.6374 14.6147 38.6374 12.5C38.6374 10.3853 39.2181 8.73 40.3794 7.534C41.5581 6.338 43.1961 5.74 45.2934 5.74ZM45.2934 8.392C44.2881 8.392 43.5167 8.73867 42.9794 9.432C42.4594 10.108 42.1994 11.1307 42.1994 12.5C42.1994 13.8693 42.4594 14.9007 42.9794 15.594C43.5167 16.27 44.2881 16.608 45.2934 16.608C46.2987 16.608 47.0614 16.27 47.5814 15.594C48.1187 14.9007 48.3874 13.8693 48.3874 12.5C48.3874 11.1307 48.1187 10.108 47.5814 9.432C47.0614 8.73867 46.2987 8.392 45.2934 8.392Z" fill="#11144C"/>
</svg>
