<svg width="24" height="32" viewBox="0 0 24 32" fill="none" xmlns="http://www.w3.org/2000/svg">
<path d="M10.75 31.375C9.66667 29.7917 8.27083 27.7917 6.5625 25.375C4.47917 22.375 3.10417 20.3542 2.4375 19.3125C1.47917 17.8125 0.833333 16.5625 0.5 15.5625C0.166667 14.5208 0 13.3333 0 12C0 9.83333 0.541667 7.83333 1.625 6C2.70833 4.16667 4.16667 2.70833 6 1.625C7.83333 0.541667 9.83333 0 12 0C14.1667 0 16.1667 0.541667 18 1.625C19.8333 2.70833 21.2917 4.16667 22.375 6C23.4583 7.83333 24 9.83333 24 12C24 13.3333 23.8333 14.5208 23.5 15.5625C23.1667 16.5625 22.5208 17.8125 21.5625 19.3125C20.8958 20.3542 19.5208 22.375 17.4375 25.375L13.25 31.375C12.9583 31.7917 12.5417 32 12 32C11.4583 32 11.0417 31.7917 10.75 31.375ZM12 17C13.375 17 14.5417 16.5208 15.5 15.5625C16.5 14.5625 17 13.375 17 12C17 10.625 16.5 9.45833 15.5 8.5C14.5417 7.5 13.375 7 12 7C10.625 7 9.4375 7.5 8.4375 8.5C7.47917 9.45833 7 10.625 7 12C7 13.375 7.47917 14.5625 8.4375 15.5625C9.4375 16.5208 10.625 17 12 17Z" fill="#11144C"/>
</svg>
